<svg width="30" height="65" viewBox="0 0 30 65" fill="none" xmlns="http://www.w3.org/2000/svg">
<g clip-path="url(#clip0_21_2)">
<path d="M27.0341 51.3044H27.9207C28.3171 51.3044 28.6384 51.6209 28.6384 52.0113V57.0777C28.6384 57.4681 28.3171 57.7846 27.9207 57.7846H27.0341C26.6378 57.7846 26.3164 57.4681 26.3164 57.0777V52.0113C26.3164 51.6209 26.6378 51.3044 27.0341 51.3044Z" fill="#60585A"/>
<path d="M2.37171 50.4809H3.25831C3.65469 50.4809 3.97601 50.7974 3.97601 51.1878V56.2542C3.97601 56.6446 3.65469 56.9611 3.25831 56.9611H2.37171C1.97534 56.9611 1.65401 56.6446 1.65401 56.2542V51.1878C1.65401 50.7974 1.97534 50.4809 2.37171 50.4809Z" fill="#60585A"/>
<path d="M12.7755 5.51138C12.318 5.53781 11.8444 5.54332 11.3905 5.48338C11.0918 5.42475 10.4313 5.17319 10.7505 4.76887C11.189 4.35369 11.9653 4.41734 12.5196 4.46395L12.5625 3.97037C11.7994 3.90861 10.8767 3.88868 10.3186 4.49153C9.81862 5.27554 10.6009 5.84191 11.3239 5.97515C11.8073 6.03551 12.2907 6.00388 12.7754 6.0318V5.51138H12.7755Z" fill="#4A00AD"/>
<path d="M12.7755 2.90763C12.318 2.8812 11.8444 2.87568 11.3905 2.93563C11.0918 2.99426 10.4313 3.24582 10.7505 3.65013C11.189 4.06532 11.9653 4.00167 12.5196 3.95506L12.5625 4.44864C11.7994 4.5104 10.8767 4.53032 10.3186 3.92748C9.81862 3.14347 10.6009 2.57709 11.3239 2.44386C11.8073 2.3835 12.2907 2.41512 12.7754 2.38721V2.90763H12.7755Z" fill="#4A00AD"/>
<path d="M14.5607 4.03814C14.3881 4.05436 14.2107 4.04732 14.0376 4.04823C13.8912 4.04868 13.3996 4.12253 13.3084 3.9661C13.2763 3.85459 13.331 3.72697 13.4261 3.6647C13.6567 3.54797 13.9679 3.60741 14.2153 3.61909C14.518 3.63338 14.9285 3.66628 15.021 3.3035C15.0496 3.00732 14.8622 2.72327 14.6285 2.55141C14.3193 2.36412 13.9673 2.39872 13.6224 2.44148C13.417 2.46837 13.2122 2.49934 13.0062 2.52214L13.0441 2.83523C13.2507 2.81095 13.456 2.77727 13.6622 2.75038C13.9144 2.71998 14.2038 2.67381 14.4348 2.80607C14.5677 2.89853 14.6959 3.06903 14.6969 3.23612C14.6981 3.36057 14.3036 3.31145 14.2317 3.30793C13.898 3.29035 13.5352 3.23726 13.2323 3.40731C12.9883 3.58745 12.8805 3.93173 13.0698 4.18833C13.3169 4.41951 13.7236 4.35984 14.0376 4.36087C14.2107 4.36166 14.3881 4.35463 14.5607 4.37085V4.03814Z" fill="#4A00AD"/>
<path d="M14.8297 4.36218C15.0299 4.34224 15.2372 4.35011 15.4381 4.34906C15.8171 4.34775 16.1961 4.35055 16.5752 4.35204C16.6511 4.35247 16.7272 4.353 16.8031 4.35519V4.07288C16.7272 4.07515 16.6511 4.07568 16.5752 4.07612C16.1961 4.0776 15.8171 4.0804 15.4381 4.07909C15.2372 4.07804 15.0299 4.08591 14.8297 4.06596V4.36218Z" fill="#4A00AD"/>
<path d="M15.9462 4.15518C15.9307 4.04653 15.9385 3.93201 15.9378 3.82292C15.9367 3.60526 15.9366 3.3876 15.9383 3.16985C15.9395 3.02568 15.9411 2.88151 15.9415 2.73733C15.9416 2.65107 15.9413 2.56473 15.9411 2.47847H15.6173C15.6172 2.56473 15.6169 2.65107 15.6171 2.73733C15.6173 2.88151 15.6189 3.02568 15.6201 3.16985C15.6218 3.3876 15.6218 3.60526 15.6208 3.82292C15.6199 3.93201 15.6278 4.04653 15.6122 4.15518H15.9462Z" fill="#4A00AD"/>
<path d="M17.1933 4.30338C17.175 4.16289 17.1838 4.015 17.1821 3.87378C17.1783 3.51887 17.1778 3.16388 17.1814 2.80889C17.1828 2.6927 17.1846 2.57643 17.1869 2.46024H16.9132C16.9154 2.57643 16.9172 2.6927 16.9187 2.80889C16.9223 3.16388 16.9218 3.51887 16.918 3.87378C16.9162 4.015 16.9251 4.16289 16.9068 4.30338H17.1933Z" fill="#4A00AD"/>
<path d="M17.0219 4.38818C17.1398 4.37534 17.2613 4.38209 17.3797 4.37888C17.6328 4.36752 17.8553 4.29481 17.8885 4.01566C17.8961 3.73609 17.7404 3.56844 17.4647 3.51664C17.3354 3.50059 17.209 3.50544 17.0798 3.51903L17.1093 3.77982C17.2113 3.76854 17.3118 3.76335 17.414 3.77562C17.5482 3.79999 17.6161 3.84808 17.6151 3.98774C17.6047 4.11414 17.4815 4.11027 17.373 4.11537C17.2574 4.11768 17.1372 4.12205 17.0219 4.10936V4.38818Z" fill="#4A00AD"/>
<path d="M17.1348 3.64133C17.237 3.63013 17.3431 3.6354 17.4458 3.63458C17.6663 3.63285 17.9137 3.64973 18.0968 3.50817C18.2518 3.34678 18.1984 3.14816 18.1404 2.95679C18.1009 2.82726 18.0673 2.70004 18.0631 2.56426C18.0628 2.53774 18.0631 2.51147 18.0637 2.48504L17.7874 2.47812C17.7866 2.50966 17.7863 2.54112 17.7867 2.57265C17.7919 2.73166 17.8307 2.88087 17.8771 3.03239C17.8982 3.10189 17.9568 3.23051 17.9178 3.3033C17.8245 3.40772 17.5689 3.37025 17.4458 3.36926C17.3431 3.36844 17.237 3.37371 17.1348 3.36251V3.64133Z" fill="#4A00AD"/>
<path d="M17.1055 4.38745H16.9088V4.13832H17.1055V4.38745Z" fill="#4A00AD"/>
<path fill-rule="evenodd" clip-rule="evenodd" d="M20.197 3.40498C20.197 2.83202 19.7627 2.36694 19.2274 2.36694C18.6922 2.36694 18.2579 2.83202 18.2579 3.40498C18.2579 3.97802 18.6922 4.44302 19.2274 4.44302C19.7627 4.44302 20.197 3.97802 20.197 3.40498ZM19.8879 3.4315C19.8879 3.04126 19.5919 2.72448 19.2274 2.72448C18.8629 2.72448 18.567 3.04126 18.567 3.4315C18.567 3.82189 18.8629 4.13859 19.2274 4.13859C19.5919 4.13859 19.8879 3.82189 19.8879 3.4315Z" fill="#4A00AD"/>
<path d="M1.74476 8.07297H2.63136C3.02773 8.07297 3.34906 8.38947 3.34906 8.77989V13.8463C3.34906 14.2367 3.02773 14.5532 2.63136 14.5532H1.74476C1.34839 14.5532 1.02706 14.2367 1.02706 13.8463V8.77989C1.02706 8.38947 1.34839 8.07297 1.74476 8.07297Z" fill="#60585A"/>
<path d="M27.674 8.32675H28.5606C28.9569 8.32675 29.2783 8.64325 29.2783 9.03368V14.1001C29.2783 14.4905 28.9569 14.807 28.5606 14.807H27.674C27.2776 14.807 26.9563 14.4905 26.9563 14.1001V9.03368C26.9563 8.64325 27.2776 8.32675 27.674 8.32675Z" fill="#60585A"/>
<path fill-rule="evenodd" clip-rule="evenodd" d="M15.0581 64.4746C24.5108 64.6691 25.9596 62.999 27.3566 62.7239C28.7531 59.5309 29.0183 32.6078 28.1804 30.4067C27.554 25.4215 28.5931 24.596 28.9067 18.5877C29.5036 11.5708 28.0861 15.4727 29.2778 8.33736C27.4672 0.908507 30.8775 0.757239 15.1894 0.0509644C0.792614 0.248675 2.81992 0.90859 1.00997 8.33736C2.20161 15.4727 0.784172 11.5709 1.38108 18.5877C1.69466 24.5957 2.73373 25.4212 2.10731 30.4067C1.26947 32.6075 1.53465 59.5305 2.9312 62.7239C5.1176 63.9717 10.9116 64.4746 15.0591 64.4746H15.0581Z" fill="url(#paint0_radial_21_2)" stroke="black" stroke-width="1.33333"/>
<path fill-rule="evenodd" clip-rule="evenodd" d="M26.5275 23.2115L24.7273 30.0002C24.7273 30.0002 24.7273 42.7291 24.9844 42.9407C25.2416 43.1528 27.299 46.7592 27.299 46.7592C27.299 46.7592 26.7847 23.6359 26.5274 23.211L26.5275 23.2115Z" fill="url(#paint1_radial_21_2)"/>
<path fill-rule="evenodd" clip-rule="evenodd" d="M3.34483 22.7998L5.14508 29.5885C5.14508 29.5885 5.14508 42.3174 4.88794 42.529C4.6307 42.7411 2.57338 46.3475 2.57338 46.3475C2.57338 46.3475 3.08767 23.2242 3.34491 22.7993L3.34483 22.7998Z" fill="url(#paint2_radial_21_2)"/>
<path fill-rule="evenodd" clip-rule="evenodd" d="M26.8902 3.66608C27.8656 5.20321 27.7945 19.8238 26.2339 20.9767C24.7266 19.7538 15.9945 18.6178 14.3342 18.7234C12.6381 18.6005 5.99976 19.3867 3.96025 20.5924C3.41041 20.7678 2.31106 3.66632 3.87171 2.51349C8.74896 1.16764 24.9398 1.16764 26.8902 3.6655V3.66608Z" fill="#A9A0A0" stroke="black" stroke-opacity="0.45912" stroke-width="1.33333"/>
<path fill-rule="evenodd" clip-rule="evenodd" d="M26.5085 21.1948C26.5085 21.1948 21.0301 18.98 14.9181 18.9233C9.41446 18.8706 6.92885 19.7157 3.58108 20.9835C3.98682 24.9983 4.39265 28.8016 5.40716 30.0695C14.7403 27.7449 15.3489 27.7449 24.6821 30.0695C24.8852 28.8022 26.7113 21.406 26.5084 21.1952L26.5085 21.1948Z" fill="url(#paint3_radial_21_2)"/>
<path fill-rule="evenodd" clip-rule="evenodd" d="M26.1953 21.4262C26.1953 21.4262 20.8631 19.3872 14.9135 19.3351C9.55653 19.2865 7.13722 20.0646 3.87822 21.2317C4.27315 24.9278 4.66816 28.4291 5.65565 29.5964C14.7405 27.4565 15.3324 27.4566 24.4172 29.5964C24.6147 28.4293 26.3921 21.6208 26.1947 21.4263L26.1953 21.4262Z" fill="black" fill-opacity="0.7044" stroke="black" stroke-width="1.33333"/>
<path fill-rule="evenodd" clip-rule="evenodd" d="M23.6717 43.7607C24.7058 48.6494 25.5329 58.0196 25.5329 58.0196C23.8784 59.4455 15.3997 60.0566 15.1924 60.0566C14.572 60.0566 6.0933 59.4455 4.64534 57.4085C4.64534 56.1863 5.47262 47.4274 6.29979 43.5572C13.5378 44.5757 23.2573 44.1683 23.6711 43.7609L23.6717 43.7607Z" fill="url(#paint4_radial_21_2)"/>
<path fill-rule="evenodd" clip-rule="evenodd" d="M23.2329 44.1856C24.2204 48.8542 25.0104 57.8022 25.0104 57.8022C23.4304 59.1639 15.3336 59.7474 15.1355 59.7474C14.543 59.7474 6.44607 59.1639 5.06332 57.2186C5.06332 56.0515 5.85334 47.6872 6.64328 43.9907C13.5554 44.9633 22.8375 44.5743 23.2329 44.1852V44.1856Z" fill="black" fill-opacity="0.78616" stroke="black" stroke-width="1.33333"/>
<path fill-rule="evenodd" clip-rule="evenodd" d="M3.08905 22.9817L0.719147 23.1762C0.719147 23.1762 -0.465805 24.3434 0.324135 24.927C1.11416 25.5105 3.08905 24.7325 3.08905 24.7325V22.9817Z" fill="#F70000" stroke="black" stroke-opacity="0.55346" stroke-width="1.25"/>
<path fill-rule="evenodd" clip-rule="evenodd" d="M26.9113 23.3712L29.2812 23.5657C29.2812 23.5657 30.4662 24.7329 29.6762 25.3165C28.8862 25.9 26.9113 25.122 26.9113 25.122V23.3712Z" fill="#F70000" stroke="black" stroke-opacity="0.54717" stroke-width="1.33333"/>
<path fill-rule="evenodd" clip-rule="evenodd" d="M25.6041 1.40192C26.3584 1.53145 27.2193 2.96632 26.8233 3.20545C25.8802 2.73699 24.0372 2.09329 22.2266 1.91395C21.8683 1.72455 21.3791 1.14352 21.3607 1.014C22.6052 0.944249 24.7812 1.2425 25.6041 1.40192Z" fill="#2E87CF" fill-opacity="0.56604" stroke="black" stroke-opacity="0.25157" stroke-width="1.44267"/>
<path fill-rule="evenodd" clip-rule="evenodd" d="M5.02854 0.997626C4.2742 1.12716 3.41338 2.20258 3.80931 2.44171C4.75232 1.97329 6.59546 1.8237 8.406 1.64431C8.76427 1.45492 9.2532 0.739169 9.27209 0.60964C8.02745 0.539878 5.85142 0.838198 5.02854 0.997626Z" fill="#2E87CF" fill-opacity="0.56604" stroke="black" stroke-opacity="0.25157" stroke-width="1.44267"/>
<path d="M20.6125 0.854743C17.5111 0.315629 12.2661 0.360508 10.0312 0.630023" stroke="black" stroke-opacity="0.37107" stroke-width="1.33333"/>
<path d="M20.6125 1.07938C17.5111 0.540269 12.2661 0.585147 10.0312 0.854663" stroke="black" stroke-opacity="0.37107" stroke-width="1.33333"/>
<path d="M20.6125 1.34888C17.5111 0.80977 12.2661 0.854648 10.0312 1.12416" stroke="black" stroke-opacity="0.37107" stroke-width="1.33333"/>
<path d="M20.6125 1.66337C17.5111 1.16922 12.4029 1.25897 10.2134 1.39369" stroke="black" stroke-opacity="0.37107" stroke-width="1.33333"/>
<path fill-rule="evenodd" clip-rule="evenodd" d="M26.3928 24.3437L25.0104 30.5686C25.0104 30.5686 25.0104 42.2402 25.2079 42.4345C25.4054 42.629 26.9853 45.9359 26.9853 45.9359C26.9853 45.9359 26.5904 24.7329 26.3928 24.3434V24.3437Z" fill="black" fill-opacity="0.68554" stroke="black" stroke-width="1.33333"/>
<path d="M26.9611 25.5706C27.1561 27.6842 28.2144 62.0866 26.571 62.0776C20.731 64.257 8.04351 64.0196 3.28665 61.5011C1.82113 61.4953 2.70153 27.1072 2.89657 24.9942" stroke="black" stroke-width="1.33333"/>
<path fill-rule="evenodd" clip-rule="evenodd" d="M3.48361 23.955L4.86603 30.1799C4.86603 30.1799 4.86603 41.8515 4.66856 42.0459C4.47102 42.2404 2.89114 45.5473 2.89114 45.5473C2.89114 45.5473 3.28607 24.3442 3.48361 23.9547V23.955Z" fill="black" fill-opacity="0.74843" stroke="black" stroke-width="1.33333"/>
</g>
<defs>
<radialGradient id="paint0_radial_21_2" cx="0" cy="0" r="1" gradientUnits="userSpaceOnUse" gradientTransform="translate(14.8946 30.7581) rotate(180) scale(69.8262 158.84)">
<stop stop-color="#A4A3A3"/>
<stop offset="1" stop-color="#EAEAEA"/>
</radialGradient>
<radialGradient id="paint1_radial_21_2" cx="0" cy="0" r="1" gradientUnits="userSpaceOnUse" gradientTransform="translate(29.3567 32.5924) rotate(180) scale(0.517883 4.74191)">
<stop stop-color="#F8CE00"/>
<stop offset="1" stop-color="#B79700"/>
</radialGradient>
<radialGradient id="paint2_radial_21_2" cx="0" cy="0" r="1" gradientUnits="userSpaceOnUse" gradientTransform="translate(0.515393 32.1807) scale(0.517883 4.74191)">
<stop stop-color="#F8CE00"/>
<stop offset="1" stop-color="#B79700"/>
</radialGradient>
<radialGradient id="paint3_radial_21_2" cx="0" cy="0" r="1" gradientUnits="userSpaceOnUse" gradientTransform="translate(15.0512 24.495) rotate(180) scale(11.4721 5.57433)">
<stop stop-color="#F8CE00"/>
<stop offset="1" stop-color="#B79700"/>
</radialGradient>
<radialGradient id="paint4_radial_21_2" cx="0" cy="0" r="1" gradientUnits="userSpaceOnUse" gradientTransform="translate(15.8031 51.1627) rotate(180) scale(11.2798 8.91042)">
<stop stop-color="#F8CE00"/>
<stop offset="1" stop-color="#B79700"/>
</radialGradient>
<clipPath id="clip0_21_2">
<rect width="30" height="65" fill="white" transform="matrix(-1 0 0 1 30 0)"/>
</clipPath>
</defs>
</svg>
